<svg viewBox="0 0 1100 825" version="1.1" xmlns="http://www.w3.org/2000/svg">
<defs>
<clipPath id="c0_6"><path d="M-.2 825.3V-.2H1100.3V825.3Z"/></clipPath>
<clipPath id="c1_6"><path d="M307.1 708.4V620.1H446.3v88.3Z"/></clipPath>
<style>
.g0_6{fill:#FFF;}
.g1_6{fill:none;stroke:#F00;stroke-width:2.291;stroke-linejoin:round;stroke-dasharray:19,7;}
.g2_6{fill:#F0F;}
.g3_6{fill:#0F0;}
.g4_6{fill:none;stroke:#000;stroke-width:1.384;stroke-linejoin:round;}
.g5_6{fill:none;stroke:#F0F;stroke-width:1.145;stroke-linejoin:round;}
.g6_6{fill:#F30;}
.g7_6{fill:#FC0;}
</style>
</defs>
<g clip-path="url(#c0_6)">
<image x="0" y="0" width="1100" height="825" href="shade/1.png"/>
<image preserveAspectRatio="none" x="95" y="17" width="1005" height="77" href="img/1.jpg"/>
</g>
<path fill-rule="evenodd" d="M7.6 55.8C7.6 25 32.9 0 64.2 0c31.2 0 56.5 25 56.5 55.8c0 30.8-25.3 55.7-56.5 55.7c-31.3 0-56.6-24.9-56.6-55.7Z" class="g0_6"/>
<g clip-path="url(#c0_6)">
<image preserveAspectRatio="none" x="7" y="6" width="107" height="100" href="img/2.png"/>
<image preserveAspectRatio="none" x="66" y="197" width="24" height="26" href="img/3.png"/>
<image preserveAspectRatio="none" x="66" y="311" width="24" height="26" href="img/4.png"/>
<image preserveAspectRatio="none" x="66" y="426" width="24" height="26" href="img/5.png"/>
<image preserveAspectRatio="none" x="121" y="580" width="15" height="16" href="img/6.png"/>
<image preserveAspectRatio="none" x="121" y="617" width="15" height="16" href="img/7.png"/>
<image preserveAspectRatio="none" x="121" y="653" width="15" height="17" href="img/8.png"/>
<image preserveAspectRatio="none" x="550" y="231" width="511" height="415" href="img/9.jpg"/>
</g>
<path d="M572.5 440.1c0-106.7 103.4-193.2 230.8-193.2c127.5 0 230.8 86.5 230.8 193.2c0 106.7-103.3 193.2-230.8 193.2c-127.4 0-230.8-86.5-230.8-193.2Z" class="g1_6"/>
<path d="M589 446.3l427.9 .2v3.4L589 449.7Zm1.7 10.3L573.5 448l17.2-8.6Zm424.5-17l17.2 8.6l-17.2 8.6Z" class="g2_6"/>
<path d="M807.6 262l.2 358.7h-2.3L805.3 262Zm-8.8 1.5l7.7-15.2l7.6 15.2Zm15.5 355.6l-7.6 15.3L799 619.1Z" class="g3_6"/>
<path d="M571.4 448c0-15.9 104-28.8 232.2-28.8c128.3 0 232.2 12.9 232.2 28.8c0 15.9-103.9 28.9-232.2 28.9c-128.2 0-232.2-13-232.2-28.9Z" class="g5_6"/>
<g clip-path="url(#c1_6)">
<path d="M370.9 665.7h67.7" class="g4_6"/>
</g>
<path d="M956.5 672.8L925.2 612l1.4-.8l31.2 60.9Zm-34-57.7l-.1-10.3l8.3 6.1Z" class="g6_6"/>
<path d="M975.2 239l23.3 62.2l-1.4 .5l-23.3-62.1Zm26.4 59.4l-1.1 10.2l-7.5-7Z" class="g7_6"/>
</svg>