<svg viewBox="0 0 1100 825" version="1.1" xmlns="http://www.w3.org/2000/svg">
<defs>
<clipPath id="c0_32"><path d="M-.2 825.3V-.2H1100.3V825.3Z"/></clipPath>
<style>
.g0_32{fill:#FFF;}
.g1_32{fill:none;stroke:#F00;stroke-width:4.583;stroke-linejoin:round;}
.g2_32{fill:none;stroke:#000F9A;stroke-width:4.583;stroke-linejoin:round;stroke-dasharray:14,5;}
.g3_32{fill:none;stroke:#F00;stroke-width:1.145;stroke-miterlimit:8;}
.g4_32{fill:#F00;}
</style>
</defs>
<g clip-path="url(#c0_32)">
<image x="0" y="0" width="1100" height="825" href="shade/1.png"/>
<image preserveAspectRatio="none" x="95" y="17" width="1005" height="77" href="img/1.jpg"/>
</g>
<path fill-rule="evenodd" d="M7.6 55.8C7.6 25 32.9 0 64.2 0c31.2 0 56.5 25 56.5 55.8c0 30.8-25.3 55.7-56.5 55.7c-31.3 0-56.6-24.9-56.6-55.7Z" class="g0_32"/>
<g clip-path="url(#c0_32)">
<image preserveAspectRatio="none" x="7" y="6" width="107" height="100" href="img/2.png"/>
<image preserveAspectRatio="none" x="45" y="221" width="29" height="30" href="img/3.png"/>
<image preserveAspectRatio="none" x="45" y="334" width="29" height="30" href="img/4.png"/>
<image preserveAspectRatio="none" x="45" y="601" width="29" height="30" href="img/5.png"/>
<image preserveAspectRatio="none" x="490" y="232" width="563" height="356" href="img/6.jpg"/>
</g>
<path d="M515.6 721.9l472.7 .2" class="g1_32"/>
<path d="M532.8 734.5c70.6-27 141.2-54 212.9-54.8" class="g2_32"/>
<path d="M249.2 744.2H518.3V696.1H249.2v48.1Z" class="g3_32"/>
<path d="M352.7 540.3L720 642.8l-.6 2.2L352 542.5Zm360.4 95.2l8.8 9l-12.2 3.2c-.6 .2-1.2-.2-1.4-.8c-.1-.6 .2-1.2 .8-1.4l10.3-2.7l-.5 1.9l-7.4-7.6c-.5-.4-.5-1.2 0-1.6c.5-.5 1.2-.4 1.6 0Z" class="g4_32"/>
</svg>