<svg viewBox="0 0 1100 825" version="1.1" xmlns="http://www.w3.org/2000/svg">
<defs>
<clipPath id="c0_27"><path d="M-.2 825.3V-.2H1100.3V825.3Z"/></clipPath>
<style>
.g0_27{fill:#FFF;}
.g1_27{fill:#CFF;}
.g2_27{fill:#000;}
.g3_27{fill:#0011B0;}
.g4_27{fill:#FFC;}
.g5_27{fill:none;stroke:#F00;stroke-width:1.527;stroke-linejoin:round;}
.g6_27{fill:none;stroke:#F00;stroke-width:2.291;stroke-linejoin:round;}
.g7_27{fill:none;stroke:#0011B0;stroke-width:1.527;stroke-miterlimit:8;}
</style>
</defs>
<g clip-path="url(#c0_27)">
<image x="0" y="0" width="1100" height="825" href="shade/1.png"/>
<image preserveAspectRatio="none" x="95" y="17" width="1005" height="77" href="img/1.jpg"/>
</g>
<path fill-rule="evenodd" d="M7.6 55.8C7.6 25 32.9 0 64.2 0c31.2 0 56.5 25 56.5 55.8c0 30.8-25.3 55.7-56.5 55.7c-31.3 0-56.6-24.9-56.6-55.7Z" class="g0_27"/>
<image clip-path="url(#c0_27)" preserveAspectRatio="none" x="7" y="6" width="107" height="100" href="img/2.png"/>
<path fill-rule="evenodd" d="M696.1 567.2h381.2v-329H696.1v329Z" class="g1_27"/>
<path d="M727.8 475.5h321.4V477H727.8Zm319.9-3.8l9.1 4.6l-9.1 4.6Z" class="g2_27"/>
<path d="M779 537V276.1h1.5V537Zm-3.9-259.3l4.6-9.2l4.6 9.2Z" class="g2_27"/>
<path d="M386.7 689.6l275.5-5.2l.2 6.9l-275.6 5.2Zm272-12l20.8 9.9l-20.4 10.7Z" class="g3_27"/>
<image clip-path="url(#c0_27)" preserveAspectRatio="none" x="1" y="219" width="686" height="408" href="img/3.jpg"/>
<path fill-rule="evenodd" d="M386.7 601.6H678.9V550H386.7v51.6Z" class="g4_27"/>
<path fill-rule="evenodd" d="M139.9 343.8h10.2v13.9H138.6l1.3-13.9Z" class="g4_27"/>
<path d="M139.9 343.8h10.2v13.9H138.6l1.3-13.9Z" class="g5_27"/>
<path fill-rule="evenodd" d="M477 349.5h14.7l2.5 15.8H477.7l-.7-15.8Z" class="g4_27"/>
<path d="M477 349.5h14.7l2.5 15.8H477.7l-.7-15.8Z" class="g5_27"/>
<path fill-rule="evenodd" d="M850.2 297.3v98.6l99.1-.6L930.9 293.5l-80.7 3.8Z" class="g4_27"/>
<path d="M850.2 297.3v98.6l99.1-.6L930.9 293.5l-80.7 3.8Z" class="g6_27"/>
<path fill-rule="evenodd" d="M845.6 393.8h2.2v-2.1h4.3v2.1h2.1v4.3h-2.1v2.2h-4.3v-2.2h-2.2Z" class="g4_27"/>
<path d="M845.6 393.8h2.2v-2.1h4.3v2.1h2.1v4.3h-2.1v2.2h-4.3v-2.2h-2.2Z" class="g7_27"/>
<path fill-rule="evenodd" d="M774.2 474.6h2.2v-2.1h4.2v2.1h2.2v4.3h-2.2v2.2h-4.2v-2.2h-2.2Z" class="g4_27"/>
<path d="M774.2 474.6h2.2v-2.1h4.2v2.1h2.2v4.3h-2.2v2.2h-4.2v-2.2h-2.2Z" class="g7_27"/>
<path d="M782.2 476.4l66.3-75.5l1.1 1l-66.2 75.5Zm56.5-72.3l11.3-3.8L847.7 412c0 .4-.4 .7-.9 .6c-.4-.1-.6-.5-.6-.9l2.1-10.4l1 .8l-10.1 3.4c-.4 .1-.8-.1-1-.5c-.1-.4 .1-.8 .5-.9Z" class="g3_27"/>
</svg>