<svg viewBox="0 0 1100 825" version="1.1" xmlns="http://www.w3.org/2000/svg">
<defs>
<clipPath id="c0_15"><path d="M-.2 825.3V-.2H1100.3V825.3Z"/></clipPath>
<style>
.g0_15{fill:#FFF;}
.g1_15{fill:#CFF;}
.g2_15{fill:#FFC;}
.g3_15{fill:none;stroke:#000;stroke-width:1.145;stroke-linejoin:round;}
.g4_15{fill:none;stroke:#000;stroke-width:1.145;stroke-linejoin:round;stroke-dasharray:5,4;}
.g5_15{fill:none;stroke:#000;stroke-width:1.145;stroke-linejoin:round;stroke-dasharray:2,2;}
.g6_15{fill:#000;}
.g7_15{fill:#F30;}
.g8_15{fill:#0011B0;}
</style>
</defs>
<g clip-path="url(#c0_15)">
<image x="0" y="0" width="1100" height="825" href="shade/1.png"/>
<image preserveAspectRatio="none" x="95" y="17" width="1005" height="77" href="img/1.jpg"/>
</g>
<path fill-rule="evenodd" d="M7.6 55.8C7.6 25 32.9 0 64.2 0c31.2 0 56.5 25 56.5 55.8c0 30.8-25.3 55.7-56.5 55.7c-31.3 0-56.6-24.9-56.6-55.7Z" class="g0_15"/>
<image clip-path="url(#c0_15)" preserveAspectRatio="none" x="7" y="6" width="107" height="100" href="img/2.png"/>
<path fill-rule="evenodd" d="M661.5 548.1h381.2v-329H661.5v329Z" class="g1_15"/>
<path fill-rule="evenodd" d="M74.7 448.6c0-98.1 81.4-177.6 181.9-177.6c100.4 0 181.9 79.5 181.9 177.6c0 98.1-81.5 177.6-181.9 177.6c-100.5 0-181.9-79.5-181.9-177.6Z" class="g2_15"/>
<path d="M74.7 448.6c0-98.1 81.4-177.6 181.9-177.6c100.4 0 181.9 79.5 181.9 177.6c0 98.1-81.5 177.6-181.9 177.6c-100.5 0-181.9-79.5-181.9-177.6Z" class="g3_15"/>
<path fill-rule="evenodd" d="M187.2 448.3c0-97.9 32.9-177.3 73.6-177.3c40.6 0 73.6 79.4 73.6 177.3c0 97.9-33 177.3-73.6 177.3c-40.7 0-73.6-79.4-73.6-177.3Z" class="g2_15"/>
<path d="M187.2 448.3c0-97.9 32.9-177.3 73.6-177.3c40.6 0 73.6 79.4 73.6 177.3c0 97.9-33 177.3-73.6 177.3c-40.7 0-73.6-79.4-73.6-177.3Z" class="g4_15"/>
<path d="M74.7 448.5c0-16.7 81.4-30.3 181.9-30.3c100.4 0 181.9 13.6 181.9 30.3c0 16.7-81.5 30.3-181.9 30.3c-100.5 0-181.9-13.6-181.9-30.3Z" class="g5_15"/>
<path d="M256.5 245V643.4m0-190.4L395.1 331.7M48.5 450.7H481.6" class="g3_15"/>
<path d="M121.8 330.9c0-9.1 60.9-16.4 136-16.4c75.1 0 136 7.3 136 16.4c0 9-60.9 16.3-136 16.3c-75.1 0-136-7.3-136-16.3Z" class="g5_15"/>
<path d="M256.5 329.4H391.1" class="g4_15"/>
<path d="M330.5 398.3l12 19.3c.1 .1 .1 .3 .1 .4l1 18.5l-1.6 .1l-.9-18.5l.1 .3l-12-19.3Zm-3.8 4.2l-.9-10.2l8.7 5.3Zm20.6 32.3l-4.1 9.4l-5.1-8.9Z" class="g6_15"/>
<path d="M263.7 372.2l35.2-9.1l-.4 .2l21.8-26.2l1.2 1l-21.9 26.2c0 .1-.2 .2-.3 .2l-35.2 9.2Zm2.8 4.8l-10-2.1l7.7-6.8Zm49.9-41.2l9.4-4.1l-2.4 10Z" class="g6_15"/>
<path d="M687.7 452.2h321.4v1.6H687.7Zm319.9-3.8l9.1 4.6l-9.1 4.6Z" class="g6_15"/>
<path d="M738.9 513.7V252.8h1.5V513.7ZM735 254.4l4.6-9.2l4.6 9.2Z" class="g6_15"/>
<path d="M472.1 356.9H672.2v1.5H472.1Zm198.6-3.8l9.2 4.6l-9.2 4.6Z" class="g6_15"/>
<path fill-rule="evenodd" d="M386.3 331.6c0-4.8 3.9-8.7 8.7-8.7c4.8 0 8.7 3.9 8.7 8.7c0 4.8-3.9 8.7-8.7 8.7c-4.8 0-8.7-3.9-8.7-8.7Z" class="g7_15"/>
<path d="M386.3 331.6c0-4.8 3.9-8.7 8.7-8.7c4.8 0 8.7 3.9 8.7 8.7c0 4.8-3.9 8.7-8.7 8.7c-4.8 0-8.7-3.9-8.7-8.7Z" class="g3_15"/>
<path fill-rule="evenodd" d="M835.9 349.2c0-4.8 3.9-8.7 8.7-8.7c4.8 0 8.7 3.9 8.7 8.7c0 4.8-3.9 8.7-8.7 8.7c-4.8 0-8.7-3.9-8.7-8.7Z" class="g7_15"/>
<path d="M835.9 349.2c0-4.8 3.9-8.7 8.7-8.7c4.8 0 8.7 3.9 8.7 8.7c0 4.8-3.9 8.7-8.7 8.7c-4.8 0-8.7-3.9-8.7-8.7Z" class="g3_15"/>
<path d="M437.3 674.5H645.5v6.9H437.3ZM642 667.6L662.7 678L642 688.3Z" class="g8_15"/>
</svg>