<svg viewBox="0 0 1100 825" version="1.1" xmlns="http://www.w3.org/2000/svg">
<defs>
<clipPath id="c0_22"><path d="M-.2 825.3V-.2H1100.3V825.3Z"/></clipPath>
<style>
.g0_22{fill:#FFF;}
</style>
</defs>
<g clip-path="url(#c0_22)">
<image x="0" y="0" width="1100" height="825" href="shade/1.png"/>
<image preserveAspectRatio="none" x="95" y="17" width="1005" height="77" href="img/1.jpg"/>
</g>
<path fill-rule="evenodd" d="M7.6 55.8C7.6 25 32.9 0 64.2 0c31.2 0 56.5 25 56.5 55.8c0 30.8-25.3 55.7-56.5 55.7c-31.3 0-56.6-24.9-56.6-55.7Z" class="g0_22"/>
<g clip-path="url(#c0_22)">
<image preserveAspectRatio="none" x="7" y="6" width="107" height="100" href="img/2.png"/>
<image preserveAspectRatio="none" x="66" y="208" width="29" height="29" href="img/3.png"/>
<image preserveAspectRatio="none" x="121" y="324" width="18" height="19" href="img/4.png"/>
<image preserveAspectRatio="none" x="121" y="465" width="18" height="19" href="img/5.png"/>
<image preserveAspectRatio="none" x="121" y="562" width="18" height="19" href="img/6.png"/>
<image preserveAspectRatio="none" x="567" y="196" width="470" height="545" href="img/7.jpg"/>
</g>
</svg>