<svg viewBox="0 0 1100 825" version="1.1" xmlns="http://www.w3.org/2000/svg">
<defs>
<clipPath id="c0_4"><path d="M-.2 825.3V-.2H1100.3V825.3Z"/></clipPath>
<style>
.g0_4{fill:#FFF;}
.g1_4{fill:none;stroke:#000;stroke-width:1.145;stroke-linejoin:round;}
.g2_4{fill:none;stroke:#F00;stroke-width:3.437;stroke-linejoin:round;}
.g3_4{fill:none;stroke:#000;stroke-width:1.145;stroke-miterlimit:8;}
.g4_4{fill:none;stroke:#3CC;stroke-width:3.437;stroke-linejoin:round;}
.g5_4{fill:none;stroke:#000;stroke-width:1.145;stroke-linejoin:round;}
.g6_4{fill:#000;}
.g7_4{fill:none;stroke:#F00;stroke-width:3.437;stroke-linejoin:round;}
</style>
</defs>
<g clip-path="url(#c0_4)">
<image x="0" y="0" width="1100" height="825" href="shade/1.png"/>
<image preserveAspectRatio="none" x="95" y="17" width="1005" height="77" href="img/1.jpg"/>
</g>
<path fill-rule="evenodd" d="M7.6 55.8C7.6 25 32.9 0 64.2 0c31.2 0 56.5 25 56.5 55.8c0 30.8-25.3 55.7-56.5 55.7c-31.3 0-56.6-24.9-56.6-55.7Z" class="g0_4"/>
<image clip-path="url(#c0_4)" preserveAspectRatio="none" x="7" y="6" width="107" height="100" href="img/2.png"/>
<path fill-rule="evenodd" d="M135.4 420.5c0-98.5 81.5-178.3 182-178.3c100.6 0 182.1 79.8 182.1 178.3c0 98.4-81.5 178.2-182.1 178.2c-100.5 0-182-79.8-182-178.2Z" class="g0_4"/>
<path d="M135.4 420.5c0-98.5 81.5-178.3 182-178.3c100.6 0 182.1 79.8 182.1 178.3c0 98.4-81.5 178.2-182.1 178.2c-100.5 0-182-79.8-182-178.2Zm0 7.1H499.5M323.3 213.7L511.2 327.8" class="g1_4"/>
<path d="M417.3 270.7L346.8 427.6" class="g2_4"/>
<path d="M417.3 270.7l-94 156.9m0-185.4V598.7" class="g1_4"/>
<path d="M346.8 427.6H499.5" class="g2_4"/>
<path fill-rule="evenodd" d="M381.4 381c7.3 8.7 11.6 22.5 11.6 37.2c0 0 0 .1 0 .2h.8c0-.1 0-.2 0-.2c0-15.1-4.4-29.3-11.9-38.3l4.4-9.6l-10.9 2.6l1.6 17.6l4.4-9.5Z" class="g0_4"/>
<path d="M381.4 381c7.3 8.7 11.6 22.5 11.6 37.2c0 0 0 .1 0 .2h.8c0-.1 0-.2 0-.2c0-15.1-4.4-29.3-11.9-38.3l4.4-9.6l-10.9 2.6l1.6 17.6l4.4-9.5Z" class="g3_4"/>
<path d="M423.1 242.2V285m-17.6-21.4h35.3" class="g4_4"/>
<path fill-rule="evenodd" d="M630.4 420.1c0-98.8 81.3-178.9 181.5-178.9c100.3 0 181.6 80.1 181.6 178.9c0 98.8-81.3 178.9-181.6 178.9c-100.2 0-181.5-80.1-181.5-178.9Z" class="g0_4"/>
<path d="M630.4 420.1c0-98.8 81.3-178.9 181.5-178.9c100.3 0 181.6 80.1 181.6 178.9c0 98.8-81.3 178.9-181.6 178.9c-100.2 0-181.5-80.1-181.5-178.9Zm187-178.9V599m-187-173.1H993.5m-176.1 0L949.5 310.5" class="g5_4"/>
<path fill-rule="evenodd" d="M853.3 406.8c5.3 7.1 8.2 15.9 8.2 24.8c0 22.4-17.3 40.5-38.6 40.5c-.6 0-1.3-.1-1.9-.1c.6 0 1.3 .1 1.9 .1c21.3 0 38.6-18.1 38.6-40.5c0-8.9-2.9-17.7-8.2-24.8l7.6-6.2l-13.5-1.7L845.7 413l7.6-6.2Z" class="g0_4"/>
<path d="M853.3 406.8c5.3 7.1 8.2 15.9 8.2 24.8c0 22.4-17.3 40.5-38.6 40.5c-.6 0-1.3-.1-1.9-.1c.6 0 1.3 .1 1.9 .1c21.3 0 38.6-18.1 38.6-40.5c0-8.9-2.9-17.7-8.2-24.8l7.6-6.2l-13.5-1.7L845.7 413l7.6-6.2Z" class="g3_4"/>
<path fill-rule="evenodd" d="M685.4 402.8h110V356.6h-110v46.2Z" class="g0_4"/>
<path d="M762.9 390.6l26.7 18.7l-.9 1.3L762 391.9Zm27.6 14.7l4.9 9l-10.1-1.5Z" class="g6_4"/>
<path d="M823.8 522.5l93.1 75.9l-.9 1.2l-93.1-76Zm-2.2 5.1l-4.2-9.4l10 2.3Z" class="g6_4"/>
<path fill-rule="evenodd" d="M916.5 633.6h110V587.5h-110v46.1Z" class="g0_4"/>
<path fill-rule="evenodd" d="M575.4 599h88V541.3h-88V599Z" class="g0_4"/>
<path d="M967.8 303.6v44m-22.1-22h44.1" class="g7_4"/>
<image clip-path="url(#c0_4)" preserveAspectRatio="none" x="6" y="8" width="104" height="102" href="img/3.png"/>
<path fill-rule="evenodd" d="M186.2 535.9H454.7V464.4H186.2v71.5Z" class="g0_4"/>
</svg>